<svg width="672" height="671.4" viewBox="0 0 504.11 503.55" xmlns="http://www.w3.org/2000/svg"><path d="M482.39 134.82l16.965-17.457.008-.008a16.772 16.772 0 004.742-11.727l-.145-80.211a25 25 0 00-7.335-17.988A25.814 25.814 0 00478.71.015l-82.367-.07c-.184.168-.696.02-1.051.062a18.975 18.975 0 00-10.88 5.754l-178.84 178.85c-59.933-16.52-124.04 2.625-165.1 49.301-41.061 46.68-51.874 112.7-27.854 170.04 24.023 57.34 78.672 95.938 140.74 99.406 3.023.168 6.039.25 9.054.25a162.411 162.411 0 00156.675-205.484l14.605-14.613a13.477 13.477 0 003.903-10.797l-3.727-40.781 37.031 3.383a13.528 13.528 0 0014.711-14.695l-3.378-37.044 37.043 3.391a13.531 13.531 0 0014.703-14.687l-3.34-37.148 40.957 3.683a13.446 13.446 0 0010.793-3.996zm-54.133-16.754c-3.996-.36-7.941 1.074-10.777 3.91s-4.27 6.785-3.91 10.777l3.34 37.145-37.055-3.39a13.532 13.532 0 00-14.7 14.703l3.387 37.039-37.039-3.39a13.528 13.528 0 00-14.7 14.706l3.942 43.156-17.035 17.04a8.37 8.37 0 00-2.086 8.402c18.551 60.062-3.535 125.25-54.777 161.66-51.238 36.418-120.06 35.844-170.69-1.426-50.625-37.27-71.617-102.82-52.062-162.56 19.551-59.746 75.234-100.2 138.1-100.33a147.459 147.459 0 0143.332 6.559 8.39 8.39 0 008.403-2.086L396.27 17.63a10.66 10.66 0 011.058-.91l81.41.074h.035c2.258 0 4.418.906 5.997 2.515a8.413 8.413 0 012.398 6.047l.148 80.277-.008.024-15.824 16.285z"/><path d="M83.93 349.81c-19.316 19.316-19.316 50.637.004 69.953 19.316 19.316 50.633 19.316 69.949 0 19.316-19.316 19.32-50.637.004-69.953-19.332-19.289-50.625-19.289-69.957 0zm58.082 58.082c-12.758 12.75-33.434 12.742-46.187-.012-12.75-12.754-12.75-33.434 0-46.188 12.754-12.754 33.43-12.762 46.187-.011 12.746 12.766 12.75 33.44.008 46.21zM367.09 81.174L236.4 211.864a8.4 8.4 0 00-2.29 8.16 8.399 8.399 0 005.997 5.996 8.39 8.39 0 008.164-2.289l130.68-130.68a8.4 8.4 0 002.277-8.156 8.398 8.398 0 00-5.988-5.988 8.39 8.39 0 00-8.156 2.273zM389.05 61.056a7.837 7.837 0 00-2.457 5.695c0 2.153.89 4.215 2.457 5.692a8.648 8.648 0 0011.871 0 7.817 7.817 0 000-11.387 8.648 8.648 0 00-11.871 0z"/></svg>
